<?xml version="1.0" encoding="utf-8"?>
<!-- Generator: Adobe Illustrator 23.0.1, SVG Export Plug-In . SVG Version: 6.00 Build 0)  -->
<svg version="1.1" id="Layer_1" xmlns="http://www.w3.org/2000/svg" xmlns:xlink="http://www.w3.org/1999/xlink" x="0px" y="0px"
	 viewBox="0 0 14400 14400" style="enable-background:new 0 0 14400 14400;" xml:space="preserve">
<style type="text/css">
	.st0{fill:none;}
	.st1{fill:none;stroke:#000000;stroke-width:2.8346;}
</style>
<g>
	<line class="st0" x1="7132.98" y1="7120.97" x2="7132.98" y2="7112.94"/>
	<path class="st1" d="M7130.26,7119.9c-0.22-4.84,5.05-8.77,9.95-7.48c4.9,1.29,9.58-2.26,9.35-7.11c-0.22-4.84,4.45-8.4,9.35-7.11
		c4.9,1.29,9.58-2.26,9.35-7.11"/>
	<path class="st1" d="M7162.15,7154.35c-5.07,0.38-8.96-3.95-7.78-8.67c1.18-4.72-2.71-9.05-7.78-8.67
		c-5.07,0.38-8.96-3.95-7.78-8.67c1.18-4.72-2.71-9.05-7.78-8.67l-0.91,0.45c2.99-3.92,10.67-4.53,13.66-0.61
		c2.99,3.92,8.97,3.92,11.96,0c2.99-3.92,8.97-3.92,11.96,0s8.97,3.92,11.96,0c2.99-3.92,8.97-3.92,11.96,0
		c2.99,3.92,8.97,3.92,11.96,0c2.99-3.92,8.97-3.92,11.96,0c2.99,3.92,8.97,3.92,11.96,0c2.99-3.92,8.97-3.92,11.96,0
		c2.99,3.92,8.97,3.92,11.96,0"/>
</g>
</svg>
