<?xml version="1.0" encoding="utf-8"?>
<!-- Generator: Adobe Illustrator 23.0.1, SVG Export Plug-In . SVG Version: 6.00 Build 0)  -->
<svg version="1.1" id="Layer_1" xmlns="http://www.w3.org/2000/svg" xmlns:xlink="http://www.w3.org/1999/xlink" x="0px" y="0px"
	 viewBox="0 0 7.5 46.7" style="enable-background:new 0 0 7.5 46.7;" xml:space="preserve">
<style type="text/css">
	.st0{fill:none;}
	.st1{fill:none;stroke:#000000;stroke-width:0.1814;}
</style>
<rect x="3" y="1.3" class="st0" width="1.7" height="28.3"/>
<line class="st0" x1="2.8" y1="29.4" x2="4.5" y2="29.4"/>
<path class="st1" d="M3.9,1.1c0.8,0.6,0.8,1.8,0,2.4s-0.8,1.8,0,2.4s0.8,1.8,0,2.4s-0.8,1.8,0,2.4c0.8,0.6,0.8,1.8,0,2.4
	c-0.8,0.6-0.8,1.8,0,2.4s0.8,1.8,0,2.4c-0.8,0.6-0.8,1.8,0,2.4s0.8,1.8,0,2.4c-0.8,0.6-0.8,1.8,0,2.4c0.8,0.6,0.8,1.8,0,2.4
	c-0.8,0.6-0.8,1.8,0,2.4l0.2,0.2c0.8,0.6,0.6,1.6-0.4,2c-0.9,0.4-0.8,1.8,0,2.4c0.8,0.6,0.8,1.8,0,2.4c-0.8,0.6-0.8,1.8,0,2.4
	c0.8,0.6,0.8,1.8,0,2.4c-0.8,0.6-0.8,1.8,0,2.4c0.8,0.6,0.8,1.8,0,2.4"/>
</svg>
