<?xml version="1.0" encoding="utf-8"?>
<!-- Generator: Adobe Illustrator 23.0.0, SVG Export Plug-In . SVG Version: 6.00 Build 0)  -->
<svg version="1.1" id="Layer_1" xmlns="http://www.w3.org/2000/svg" xmlns:xlink="http://www.w3.org/1999/xlink" x="0px" y="0px"
	 viewBox="0 0 3.07 46.03" style="enable-background:new 0 0 3.07 46.03;" xml:space="preserve">
<style type="text/css">
	.st0{clip-path:url(#SVGID_2_);fill:none;stroke:#000000;stroke-width:0.4397;}
</style>
<g>
	<defs>
		<rect id="SVGID_1_" x="0.75" y="0.59" width="1.66" height="44.21"/>
	</defs>
	<clipPath id="SVGID_2_">
		<use xlink:href="#SVGID_1_"  style="overflow:visible;"/>
	</clipPath>
	<path class="st0" d="M1.58,0.59c0.81,0.92,0.81,2.76,0,3.68c-0.81,0.92-0.81,2.76,0,3.68c0.81,0.92,0.81,2.76,0,3.68
		c-0.81,0.92-0.81,2.76,0,3.68c0.81,0.92,0.81,2.76,0,3.68c-0.81,0.92-0.81,2.76,0,3.68c0.81,0.92,0.81,2.76,0,3.68
		c-0.81,0.92-0.81,2.76,0,3.68c0.81,0.92,0.81,2.76,0,3.68c-0.81,0.92-0.81,2.76,0,3.68c0.81,0.92,0.81,2.76,0,3.68
		c-0.81,0.92-0.81,2.76,0,3.68"/>
</g>
</svg>
