<?xml version="1.0" encoding="utf-8"?>
<!-- Generator: Adobe Illustrator 23.0.0, SVG Export Plug-In . SVG Version: 6.00 Build 0)  -->
<svg version="1.1" id="Layer_1" xmlns="http://www.w3.org/2000/svg" xmlns:xlink="http://www.w3.org/1999/xlink" x="0px" y="0px"
	 viewBox="0 0 1.03 11.58" style="enable-background:new 0 0 1.03 11.58;" xml:space="preserve">
<style type="text/css">
	.st0{clip-path:url(#SVGID_2_);fill:none;stroke:#000000;stroke-width:0.1084;}
</style>
<g>
	<defs>
		<rect id="SVGID_1_" x="0.31" width="0.41" height="11.58"/>
	</defs>
	<clipPath id="SVGID_2_">
		<use xlink:href="#SVGID_1_"  style="overflow:visible;"/>
	</clipPath>
	<path class="st0" d="M0.51,0c0.2,0.21,0.2,0.62,0,0.83c-0.2,0.21-0.2,0.62,0,0.83c0.2,0.21,0.2,0.62,0,0.83
		c-0.2,0.21-0.2,0.62,0,0.83c0.2,0.21,0.2,0.62,0,0.83c-0.2,0.21-0.2,0.62,0,0.83c0.2,0.21,0.2,0.62,0,0.83
		c-0.2,0.21-0.2,0.62,0,0.83c0.2,0.21,0.2,0.62,0,0.83c-0.2,0.21-0.2,0.62,0,0.83c0.2,0.21,0.2,0.62,0,0.83
		c-0.2,0.21-0.2,0.62,0,0.83c0.2,0.21,0.2,0.62,0,0.83c-0.2,0.21-0.2,0.62,0,0.83"/>
</g>
</svg>
