<?xml version="1.0" encoding="utf-8"?>
<!-- Generator: Adobe Illustrator 23.0.0, SVG Export Plug-In . SVG Version: 6.00 Build 0)  -->
<svg version="1.1" id="Layer_1" xmlns="http://www.w3.org/2000/svg" xmlns:xlink="http://www.w3.org/1999/xlink" x="0px" y="0px"
	 viewBox="0 0 300 170.79" style="enable-background:new 0 0 300 170.79;" xml:space="preserve">
<style type="text/css">
	.st0{fill:none;stroke:#000000;stroke-width:1.499;}
	.st1{fill:none;stroke:#000000;stroke-width:1.4404;}
</style>
<path class="st0" d="M39.65,1.93c3.16,2.64,3.16,7.92,0,10.55c-3.16,2.64-3.16,7.92,0,10.55c3.16,2.64,3.16,7.92,0,10.55
	c-3.16,2.64-3.16,7.92,0,10.55c3.16,2.64,3.16,7.92,0,10.55s-3.16,7.92,0,10.55c3.16,2.64,3.16,7.92,0,10.55
	c-3.16,2.64-3.16,7.92,0,10.55c3.16,2.64,3.16,7.92,0,10.55c-3.16,2.64-3.16,7.92,0,10.55s3.16,7.92,0,10.55
	c-3.16,2.64-3.16,7.92,0,10.55c3.16,2.64,3.16,7.92,0,10.55s-3.16,7.92,0,10.55c3.16,2.64,3.16,7.92,0,10.55
	c-3.16,2.64-3.16,7.92,0,10.55"/>
<path class="st1" d="M107.31,4.16c3.93,0.18,8.05,4.29,8.22,8.22c0.18,3.93,4.29,8.05,8.23,8.23c3.93,0.18,8.05,4.29,8.22,8.22
	c0.18,3.93,4.29,8.05,8.23,8.23c3.93,0.18,8.05,4.29,8.22,8.22c0.18,3.93,4.29,8.05,8.23,8.23c3.93,0.18,8.05,4.29,8.22,8.22
	c0.18,3.93,4.29,8.05,8.23,8.23c3.93,0.18,8.05,4.29,8.22,8.22c0.18,3.93,4.29,8.05,8.23,8.23c3.93,0.18,8.05,4.29,8.22,8.22
	c0.18,3.93,4.29,8.05,8.23,8.23c3.93,0.18,8.05,4.29,8.22,8.22c0.18,3.93,4.29,8.05,8.23,8.23c3.93,0.18,8.05,4.29,8.22,8.22
	c0.18,3.93,4.29,8.05,8.23,8.23c3.93,0.18,8.05,4.29,8.22,8.22c0.18,3.93,4.29,8.05,8.23,8.23c3.93,0.18,8.05,4.29,8.22,8.22
	c0.18,3.93,8.58,8.4,12.51,8.58"/>
</svg>
