<svg xmlns="http://www.w3.org/2000/svg" viewBox="0 0 493.83 370.54">
  <title>big b</title>
  <g id="Layer_2" data-name="Layer 2">
    <g id="Layer_1-2" data-name="Layer 1">
      <path d="M0,0H381.42q26.85,0,45,5.28a94.47,94.47,0,0,1,33.28,17.5Q491,48.9,491,88.89a85.58,85.58,0,0,1-10.63,41.66,91,91,0,0,1-29.64,32.22,119.63,119.63,0,0,1-26.29,13.89q-13.41,5-36.35,10,11.75,1.13,20.7,2.22T425,191.66a87.46,87.46,0,0,1,13.43,4.17c4.09,1.66,8.39,3.61,12.86,5.83a73.15,73.15,0,0,1,31,28.05q11.46,18.63,11.46,42,0,22.79-9.78,40.83a92.45,92.45,0,0,1-28,31.11q-18.18,13.06-43.9,20t-57.6,6.94H0ZM263.42,152.77q19.56,0,27.68-6.11T299.21,125q0-15-8.11-21.11t-27.68-6.12H191.83v55Zm9.5,128.89q17.9,0,25.45-6.39t7.55-20.83q0-14.44-7.55-20.84t-25.45-6.39H191.83v54.45Z"/>
    </g>
  </g>
</svg>
