<svg xmlns="http://www.w3.org/2000/svg" viewBox="0 0 487.7 483.94">
  <defs>
    <style>
      .cls-1 {
        fill: #231f20;
      }
    </style>
  </defs>
  <title>bigo</title>
  <g id="Layer_2" data-name="Layer 2">
    <g id="Layer_1-2" data-name="Layer 1">
      <g>
        <rect class="cls-1" x="30.16" y="144.55" width="179.61" height="21.93" transform="translate(110.99 -40.69) rotate(35.03)"/>
        <rect class="cls-1" x="100.9" y="89.12" width="185.23" height="21.93" transform="translate(244.42 -111.74) rotate(76.16)"/>
        <rect class="cls-1" x="229.26" y="102.19" width="185.23" height="21.93" transform="translate(580.8 -109.02) rotate(120)"/>
        <rect class="cls-1" x="157.23" y="81.65" width="185.23" height="21.93" transform="translate(342.45 -157.23) rotate(90)"/>
        <rect class="cls-1" x="284.29" y="148.06" width="185.23" height="21.93" transform="translate(779.05 84.04) rotate(146.56)"/>
        <rect class="cls-1" x="279.63" y="315.48" width="179.61" height="21.93" transform="translate(484.58 805.8) rotate(-144.97)"/>
        <rect class="cls-1" x="308.09" y="231.6" width="179.61" height="21.93" transform="translate(795.79 485.12) rotate(180)"/>
        <rect class="cls-1" y="228.43" width="179.61" height="21.93" transform="translate(179.61 478.8) rotate(180)"/>
        <rect class="cls-1" x="201.76" y="368.77" width="185.23" height="21.93" transform="translate(-3.95 756.38) rotate(-103.84)"/>
        <rect class="cls-1" x="72.31" y="360.88" width="185.23" height="21.93" transform="translate(-239.57 328.75) rotate(-60)"/>
        <rect class="cls-1" x="146.26" y="380.37" width="185.23" height="21.93" transform="translate(-152.45 630.2) rotate(-90)"/>
        <rect class="cls-1" x="19.88" y="311.97" width="185.23" height="21.93" transform="translate(-159.33 115.44) rotate(-33.44)"/>
      </g>
    </g>
  </g>
</svg>
