<svg id="Layer_1" data-name="Layer 1" xmlns="http://www.w3.org/2000/svg" viewBox="0 0 972.51 48.03">
  <defs>
    <style>
      .cls-1 {
        fill: #231f20;
      }
    </style>
  </defs>
  <title>book</title>
  <rect class="cls-1" x="100" y="43.76" width="36.91" height="4.27"/>
  <rect class="cls-1" x="117.32" y="55.62" width="36.11" height="4.27" transform="translate(67.4 -109.34) rotate(45)"/>
  <rect class="cls-1" x="200" y="43.76" width="36.91" height="4.27"/>
  <rect class="cls-1" x="210.13" y="58.96" width="35.02" height="4.27" transform="translate(65.15 -151.74) rotate(35.64)"/>
  <rect class="cls-1" x="229.81" y="49.54" width="36.11" height="4.27" transform="translate(286.44 -226.72) rotate(90)"/>
  <rect class="cls-1" x="300.33" y="43.76" width="36.91" height="4.27"/>
  <rect class="cls-1" x="311.71" y="56.73" width="35.02" height="4.27" transform="translate(124.96 -246.08) rotate(45)"/>
  <rect class="cls-1" x="330.13" y="49.54" width="36.11" height="4.27" transform="translate(386.77 -327.04) rotate(90)"/>
  <rect class="cls-1" x="345.37" y="52.27" width="36.11" height="4.27" transform="translate(579.17 -263.66) rotate(120)"/>
  <rect class="cls-1" x="400.33" y="43.76" width="36.91" height="4.27"/>
  <rect class="cls-1" x="437.23" y="43.76" width="36.91" height="4.27"/>
  <rect class="cls-1" x="408.93" y="59.15" width="35.02" height="4.27" transform="translate(99.32 -264.2) rotate(35.03)"/>
  <rect class="cls-1" x="423.02" y="49.54" width="36.11" height="4.27" transform="translate(372.68 -419.49) rotate(76.16)"/>
  <rect class="cls-1" x="447.75" y="50.89" width="36.11" height="4.27" transform="translate(731.53 -354.39) rotate(120)"/>
  <rect class="cls-1" x="433.84" y="47.86" width="36.11" height="4.27" transform="translate(488.8 -432.42) rotate(90)"/>
  <rect class="cls-1" x="458.47" y="59.83" width="36.11" height="4.27" transform="translate(895.24 -179.44) rotate(146.56)"/>
  <rect class="cls-1" x="537.23" y="43.76" width="36.91" height="4.27"/>
  <rect class="cls-1" x="515.93" y="64.63" width="35.02" height="4.27" transform="translate(121.85 -324.62) rotate(35.03)"/>
  <rect class="cls-1" x="523.62" y="46.56" width="36.11" height="4.27" transform="translate(490.59 -524.37) rotate(80.86)"/>
  <rect class="cls-1" x="549.22" y="51.27" width="36.11" height="4.27" transform="translate(941.24 -395.28) rotate(127.41)"/>
  <rect class="cls-1" x="534.78" y="46.56" width="36.11" height="4.27" transform="matrix(-0.08, 1, -1, -0.08, 629.8, -529.45)"/>
  <rect class="cls-1" x="559.3" y="62.82" width="36.11" height="4.27" transform="translate(1126.3 -112.81) rotate(158.9)"/>
  <rect class="cls-1" y="43.76" width="36.91" height="4.27"/>
  <rect class="cls-1" x="649.67" y="74.29" width="36.91" height="4.27" transform="translate(1323.16 122.32) rotate(-180)"/>
  <rect class="cls-1" x="653.28" y="56.42" width="35.02" height="4.27" transform="translate(1173.42 -404.88) rotate(135)"/>
  <rect class="cls-1" x="633.76" y="49.24" width="36.11" height="4.27" transform="translate(690.09 -630.97) rotate(90)"/>
  <rect class="cls-1" x="618.51" y="51.97" width="36.11" height="4.27" transform="translate(352.05 -554.77) rotate(60)"/>
  <rect class="cls-1" x="749.35" y="74.29" width="36.91" height="4.27" transform="translate(1522.51 122.32) rotate(-180)"/>
  <rect class="cls-1" x="754.21" y="58.66" width="35.02" height="4.27" transform="translate(1421.19 -370.03) rotate(144.36)"/>
  <rect class="cls-1" x="733.43" y="49.24" width="36.11" height="4.27" transform="translate(789.77 -730.65) rotate(90)"/>
  <rect class="cls-1" x="848.35" y="74.29" width="36.91" height="4.27" transform="translate(1720.51 122.32) rotate(-180)"/>
  <rect class="cls-1" x="844.92" y="55.32" width="36.11" height="4.27" transform="translate(1500.72 -542.67) rotate(135)"/>
  <rect class="cls-1" x="948.7" y="74.29" width="36.91" height="4.27" transform="translate(1921.21 122.32) rotate(-180)"/>
</svg>
